<svg width="24" height="24" viewBox="0 0 24 24" fill="none" xmlns="http://www.w3.org/2000/svg">
<g clip-path="url(#clip0_33_39)">
<path d="M5.84998 16.65C6.73331 16.0167 7.69581 15.5292 8.73748 15.1875C9.77914 14.8458 10.8685 14.675 12.0055 14.675C13.1423 14.675 14.2465 14.8583 15.318 15.225C16.3893 15.5917 17.3333 16.075 18.15 16.675C18.6833 15.9417 19.0833 15.2 19.35 14.45C19.6166 13.7 19.75 12.8833 19.75 12C19.75 9.88334 18.9875 8.06251 17.4625 6.53751C15.9375 5.01251 14.1166 4.25001 12 4.25001C9.88331 4.25001 8.06248 5.01251 6.53748 6.53751C5.01248 8.06251 4.24998 9.88334 4.24998 12C4.24998 12.8833 4.37914 13.6958 4.63748 14.4375C4.89581 15.1792 5.29998 15.9167 5.84998 16.65ZM12.002 13.45C10.9006 13.45 9.97081 13.0757 9.21248 12.327C8.45414 11.5783 8.07498 10.6533 8.07498 9.55201C8.07498 8.45067 8.45348 7.52084 9.21048 6.76251C9.96748 6.00417 10.8966 5.62501 11.998 5.62501C13.0993 5.62501 14.0291 6.00351 14.7875 6.76051C15.5458 7.51751 15.925 8.44667 15.925 9.54801C15.925 10.6493 15.5465 11.575 14.7895 12.325C14.0325 13.075 13.1033 13.45 12.002 13.45ZM11.998 23.15C10.466 23.15 9.02464 22.8603 7.67398 22.281C6.32348 21.7015 5.14014 20.9015 4.12398 19.881C3.10798 18.8603 2.30831 17.6743 1.72498 16.323C1.14164 14.9715 0.849976 13.5257 0.849976 11.9855C0.849976 10.4618 1.14164 9.02501 1.72498 7.67501C2.30831 6.32501 3.10798 5.13967 4.12398 4.11901C5.14014 3.09851 6.32423 2.29851 7.67623 1.71901C9.02823 1.13967 10.4743 0.850006 12.0145 0.850006C13.5381 0.850006 14.975 1.14167 16.325 1.72501C17.675 2.30834 18.8583 3.10834 19.875 4.12501C20.8916 5.14167 21.6916 6.32501 22.275 7.67501C22.8583 9.02517 23.15 10.4675 23.15 12.002C23.15 13.534 22.8603 14.9753 22.281 16.326C21.7015 17.6765 20.9015 18.8598 19.881 19.876C18.8603 20.892 17.675 21.6917 16.325 22.275C14.9748 22.8583 13.5325 23.15 11.998 23.15ZM12 19.75C12.7833 19.75 13.5083 19.65 14.175 19.45C14.8416 19.25 15.5 18.9417 16.15 18.525C15.4833 18.0917 14.8291 17.7792 14.1875 17.5875C13.5458 17.3958 12.8166 17.3 12 17.3C11.1833 17.3 10.4583 17.3958 9.82498 17.5875C9.19164 17.7792 8.54164 18.0917 7.87498 18.525C8.52498 18.9417 9.17914 19.25 9.83748 19.45C10.4958 19.65 11.2166 19.75 12 19.75ZM12 10.825C12.35 10.825 12.65 10.7 12.9 10.45C13.15 10.2 13.275 9.90001 13.275 9.55001C13.275 9.20001 13.15 8.89584 12.9 8.63751C12.65 8.37917 12.35 8.25001 12 8.25001C11.65 8.25001 11.35 8.37917 11.1 8.63751C10.85 8.89584 10.725 9.20001 10.725 9.55001C10.725 9.90001 10.85 10.2 11.1 10.45C11.35 10.7 11.65 10.825 12 10.825Z" fill="#E8EAED"/>
</g>
<defs>
<clipPath id="clip0_33_39">
<rect width="24" height="24" fill="white"/>
</clipPath>
</defs>
</svg>
