<svg width="29" height="29" viewBox="0 0 29 29" fill="none" xmlns="http://www.w3.org/2000/svg">
<path d="M14.4697 27.1875L11.8416 24.801C9.66662 22.8274 7.87426 21.1307 6.46453 19.7109C5.05481 18.2911 3.94717 17.0174 3.14162 15.8896C2.33606 14.7618 1.77721 13.7196 1.46506 12.763C1.1529 11.8064 0.996826 10.8045 0.996826 9.75729C0.996826 7.48261 1.76452 5.57465 3.29991 4.03342C4.8351 2.49239 6.73581 1.72188 9.00204 1.72188C10.0076 1.72188 10.979 1.89809 11.9162 2.25052C12.8533 2.60295 13.7045 3.10139 14.4697 3.74584C15.235 3.10139 16.0862 2.60295 17.0233 2.25052C17.9605 1.89809 18.9319 1.72188 19.9375 1.72188C22.2208 1.72188 24.1359 2.49239 25.6828 4.03342C27.2296 5.57465 28.0031 7.48261 28.0031 9.75729C28.0031 10.7844 27.847 11.7762 27.5348 12.7328C27.2227 13.6894 26.6638 14.7266 25.8583 15.8443C25.0527 16.962 23.9451 18.2358 22.5354 19.6656C21.1256 21.0955 19.3131 22.8073 17.0979 24.801L14.4697 27.1875ZM14.4697 21.6594C16.3829 19.9073 17.9487 18.4321 19.1671 17.2339C20.3855 16.0356 21.3472 14.9934 22.052 14.1073C22.7569 13.2212 23.2402 12.4393 23.502 11.7616C23.7638 11.0839 23.8947 10.416 23.8947 9.7579C23.8947 8.62972 23.517 7.69306 22.7616 6.94792C22.0064 6.20278 21.0699 5.83021 19.952 5.83021C19.0965 5.83021 18.281 6.10209 17.5057 6.64584C16.7303 7.18959 16.2319 7.83403 16.0104 8.57917H12.9593C12.7473 7.83403 12.2462 7.18959 11.4562 6.64584C10.6659 6.10209 9.85059 5.83021 9.01019 5.83021C7.89168 5.83021 6.96619 6.20278 6.23374 6.94792C5.50149 7.69306 5.13537 8.62952 5.13537 9.75729C5.13537 10.4372 5.2707 11.1218 5.54137 11.8112C5.81203 12.5007 6.29537 13.2925 6.99137 14.1864C7.68737 15.0802 8.63953 16.1212 9.84787 17.3094C11.0562 18.4976 12.5968 19.9476 14.4697 21.6594Z" fill="#E8EAED"/>
</svg>
