<svg width="28" height="28" viewBox="0 0 28 28" fill="none" xmlns="http://www.w3.org/2000/svg">
<path d="M6.99996 25.6667C6.35829 25.6667 5.80899 25.4382 5.35204 24.9813C4.8951 24.5243 4.66663 23.975 4.66663 23.3333V9.33334C4.66663 8.69168 4.8951 8.14237 5.35204 7.68543C5.80899 7.22848 6.35829 7.00001 6.99996 7.00001H9.33329C9.33329 5.71668 9.79024 4.61807 10.7041 3.70418C11.618 2.79029 12.7166 2.33334 14 2.33334C15.2833 2.33334 16.3819 2.79029 17.2958 3.70418C18.2097 4.61807 18.6666 5.71668 18.6666 7.00001H21C21.6416 7.00001 22.1909 7.22848 22.6479 7.68543C23.1048 8.14237 23.3333 8.69168 23.3333 9.33334V23.3333C23.3333 23.975 23.1048 24.5243 22.6479 24.9813C22.1909 25.4382 21.6416 25.6667 21 25.6667H6.99996ZM6.99996 23.3333H21V9.33334H18.6666V11.6667C18.6666 11.9972 18.5548 12.2743 18.3312 12.4979C18.1076 12.7215 17.8305 12.8333 17.5 12.8333C17.1694 12.8333 16.8923 12.7215 16.6687 12.4979C16.4451 12.2743 16.3333 11.9972 16.3333 11.6667V9.33334H11.6666V11.6667C11.6666 11.9972 11.5548 12.2743 11.3312 12.4979C11.1076 12.7215 10.8305 12.8333 10.5 12.8333C10.1694 12.8333 9.89232 12.7215 9.66871 12.4979C9.4451 12.2743 9.33329 11.9972 9.33329 11.6667V9.33334H6.99996V23.3333ZM11.6666 7.00001H16.3333C16.3333 6.35834 16.1048 5.80904 15.6479 5.35209C15.1909 4.89515 14.6416 4.66668 14 4.66668C13.3583 4.66668 12.809 4.89515 12.352 5.35209C11.8951 5.80904 11.6666 6.35834 11.6666 7.00001Z" fill="black"/>
</svg>
