<svg width="68" height="50" viewBox="0 0 68 50" fill="none" xmlns="http://www.w3.org/2000/svg">
<path d="M6.75128 49.0741C5.078 49.0741 3.64557 48.4783 2.45399 47.2867C1.26242 46.0951 0.666626 44.6627 0.666626 42.9894V6.48148C0.666626 4.8082 1.26242 3.37577 2.45399 2.18419C3.64557 0.992609 5.078 0.39682 6.75128 0.39682H55.4285C57.1018 0.39682 58.5342 0.992609 59.7258 2.18419C60.9174 3.37577 61.5132 4.8082 61.5132 6.48148V18.5747H55.4285V12.5661L31.0899 27.7778L6.75128 12.5661V42.9894H43.2592V49.0741H6.75128ZM31.0899 21.6931L55.4285 6.48148H6.75128L31.0899 21.6931ZM52.3862 49.0741C51.5242 49.0741 50.8017 48.7825 50.2185 48.1994C49.6354 47.6163 49.3439 46.8937 49.3439 46.0317V36.9048C49.3439 36.0428 49.6354 35.3202 50.2185 34.7371C50.8017 34.154 51.5242 33.8624 52.3862 33.8624V30.8201C52.3862 29.1468 52.982 27.7144 54.1736 26.5228C55.3651 25.3312 56.7976 24.7354 58.4709 24.7354C60.1441 24.7354 61.5766 25.3312 62.7681 26.5228C63.9597 27.7144 64.5555 29.1468 64.5555 30.8201V33.8624C65.4175 33.8624 66.1401 34.154 66.7232 34.7371C67.3063 35.3202 67.5978 36.0428 67.5978 36.9048V46.0317C67.5978 46.8937 67.3063 47.6163 66.7232 48.1994C66.1401 48.7825 65.4175 49.0741 64.5555 49.0741H52.3862ZM55.4285 33.8624H61.5132V30.8201C61.5132 29.9581 61.2216 29.2356 60.6385 28.6524C60.0554 28.0693 59.3328 27.7778 58.4709 27.7778C57.6089 27.7778 56.8863 28.0693 56.3032 28.6524C55.7201 29.2356 55.4285 29.9581 55.4285 30.8201V33.8624Z" fill="black"/>
</svg>
